<svg xmlns="http://www.w3.org/2000/svg" width="33" height="32"><g fill="#FFF" opacity=".612"><path d="M26.717 15.158H6.388a5.853 5.853 0 00-5.85 5.852v4.703a5.852 5.852 0 005.85 5.852h20.33c3.23 0 5.85-2.621 5.85-5.852V21.01c0-3.23-2.62-5.852-5.85-5.852zm-16.058 3.66H8.77v9.392H6.943v-9.391H5.055V17.22h5.604v1.598zm5.339 9.392h-1.62v-.889c-.3.329-.61.58-.935.749a1.952 1.952 0 01-.94.258c-.377 0-.656-.119-.848-.362-.188-.242-.284-.601-.284-1.087v-6.776h1.62v6.219c0 .192.036.33.1.415.07.088.181.129.333.129.118 0 .27-.057.452-.17.183-.115.35-.259.502-.436v-6.158h1.62v8.108zm5.88-1.674c0 .573-.127 1.013-.381 1.32-.253.307-.623.457-1.101.457a1.93 1.93 0 01-.849-.176 2.082 2.082 0 01-.692-.55v.622h-1.64V17.221h1.64v3.54c.219-.246.45-.436.693-.563a1.59 1.59 0 01.748-.193c.513 0 .904.171 1.174.517.272.345.407.851.407 1.515v4.499h.001zm5.618-2.185h-3.099v1.528c0 .426.052.722.158.887.109.166.29.247.55.247.269 0 .455-.07.564-.21.104-.14.16-.447.16-.924v-.37h1.667v.417c0 .83-.201 1.457-.61 1.88-.404.418-1.011.626-1.818.626-.727 0-1.3-.222-1.716-.667-.415-.443-.626-1.057-.626-1.838v-3.642c0-.7.231-1.277.69-1.72.458-.442 1.048-.662 1.773-.662.743 0 1.313.204 1.71.614.398.411.597.999.597 1.767v2.067z"/><path d="M25.12 21.32c-.258 0-.442.072-.554.224-.115.142-.169.386-.169.726v.82h1.432v-.82c0-.34-.057-.584-.17-.726-.11-.151-.292-.224-.538-.224zm-5.588-.028a.798.798 0 00-.342.079 1.16 1.16 0 00-.335.248v5.05c.13.13.259.231.384.289a.952.952 0 00.392.087c.2 0 .344-.058.438-.174.092-.115.139-.299.139-.558v-4.187c0-.275-.055-.482-.17-.623-.119-.14-.287-.21-.506-.21zM9.05 12.342h2.053V7.32L13.494.235h-2.087l-1.27 4.84h-.13L8.673.234H6.604l2.446 7.31zm7.226.225c.83 0 1.48-.218 1.954-.653.471-.436.707-1.033.707-1.797V5.504c0-.68-.241-1.24-.721-1.671-.483-.43-1.103-.647-1.857-.647-.83 0-1.49.205-1.981.614-.49.41-.736.959-.736 1.653v4.629c0 .76.24 1.36.718 1.81.479.45 1.119.675 1.916.675zm-.756-7.182c0-.194.07-.35.206-.473a.808.808 0 01.545-.179c.241 0 .436.059.585.179.148.122.222.28.222.473v4.866c0 .238-.072.428-.22.564-.145.137-.34.205-.587.205-.241 0-.427-.066-.558-.203-.128-.134-.194-.322-.194-.567V5.385h.001zm6.17 7.087c.344 0 .696-.098 1.058-.286.366-.19.717-.47 1.05-.833v.99h1.825V3.411h-1.824v6.778a2.52 2.52 0 01-.561.48c-.206.126-.376.188-.51.188-.171 0-.297-.047-.371-.144-.075-.093-.118-.246-.118-.456V3.412h-1.821v7.463c0 .533.107.93.319 1.194.215.268.53.403.954.403z"/></g></svg>