<svg xmlns="http://www.w3.org/2000/svg" width="39" height="32"><path fill="#FFF" d="M39.024 3.953a15.696 15.696 0 01-4.53 1.242A7.902 7.902 0 0037.961.83a15.79 15.79 0 01-5.01 1.916A7.878 7.878 0 0027.196.254a7.888 7.888 0 00-7.888 7.889c0 .617.07 1.219.205 1.797-6.556-.33-12.37-3.469-16.26-8.242a7.848 7.848 0 00-1.068 3.967 7.884 7.884 0 003.51 6.565 7.866 7.866 0 01-3.574-.987v.1a7.894 7.894 0 006.328 7.734 7.931 7.931 0 01-3.563.135 7.897 7.897 0 007.368 5.478 15.825 15.825 0 01-9.796 3.377c-.636 0-1.265-.037-1.882-.11A22.322 22.322 0 0012.667 31.5c14.51 0 22.444-12.019 22.444-22.443 0-.342-.007-.683-.022-1.022 1.54-1.11 2.878-2.5 3.935-4.082z" opacity=".612"/></svg>