<svg width="576" height="306" xmlns="http://www.w3.org/2000/svg"><path d="M263.192 74.047l.047-1.106a.589.589 0 01.588-.564c.361 0 .708-.142.965-.396l.373-.37a2.647 2.647 0 011.863-.767h.611a.61.61 0 01.61.611c0 .39-.162.76-.448 1.024l-1.5 1.381a1.354 1.354 0 00-.438.996c0 .328.266.594.594.594h.744c.58 0 1.049.47 1.049 1.049 0 .667-.285 1.302-.784 1.746l-.75.668a.449.449 0 00-.055.612l.09.114c.114.145.237.284.368.415l4.175 4.174c.6.601.939 1.416.939 2.266v.134c0 .66.534 1.194 1.193 1.194h.377c.45 0 .816.365.816.816 0 .517-.228 1.009-.624 1.342l-.18.151a2.259 2.259 0 00-.805 1.729v.106c0 .64-.519 1.158-1.158 1.158h-5.541c-.74 0-1.454.273-2.006.767l-.39.35c-.3.268-.689.417-1.092.417a.267.267 0 01-.193-.453l3.167-3.309a.5.5 0 00-.36-.844 1.17 1.17 0 01-1.17-1.17v-2.085c0-.325.264-.588.588-.588a1.51 1.51 0 001.022-.398l.495-.455a1.005 1.005 0 000-1.48l-.03-.028a2.7 2.7 0 00-1.827-.712 1.052 1.052 0 01-1.052-1.052v-1.778c0-.895-.374-1.75-1.032-2.357l-.132-.121a1.172 1.172 0 01-.03-1.694c.56-.555.889-1.3.923-2.087zm-7.01 15.384a.387.387 0 00.306-.625l-.306-.394a3.764 3.764 0 01-.792-2.31v-1.246a.62.62 0 01.62-.62c.4 0 .79-.137 1.101-.39l.437-.352a3.338 3.338 0 012.099-.743h.285c.81 0 1.467.657 1.467 1.467v2.393a4.687 4.687 0 01-1.194 3.126l-.714.798a3.44 3.44 0 01-2.563 1.146h-.413a1.125 1.125 0 01-1.125-1.125v-.334c0-.437.354-.791.792-.791zM211.29 213.224l-4.942 4.791a4.687 4.687 0 00-1.425 3.366v8.576a4.687 4.687 0 01-1.35 3.29l-1.601 1.626a4.687 4.687 0 01-3.338 1.397h-.882c-1.24 0-2.43.491-3.308 1.366l-4.506 4.489a4.687 4.687 0 00-1.379 3.32v.863a4.687 4.687 0 01-1.374 3.316l-2.704 2.702a4.687 4.687 0 00-1.374 3.316v.846a4.687 4.687 0 01-1.263 3.2l-.612.656a4.687 4.687 0 01-3.425 1.487h-2.088a1.667 1.667 0 00-1.158 2.866l1.23 1.189a2.425 2.425 0 01-.011 3.499l-.47.447a4.687 4.687 0 01-3.235 1.296h-1.45a3.102 3.102 0 00-3.101 3.103v.763a2.34 2.34 0 01-2.34 2.339 2.34 2.34 0 00-2.339 2.339v1.514a4.687 4.687 0 01-1.456 3.396l-.647.615a3.262 3.262 0 00-1.013 2.363c0 .773.626 1.399 1.399 1.399h.502c.671 0 1.215.544 1.215 1.215 0 .78-.294 1.533-.824 2.107l-3.382 3.657a4.687 4.687 0 00-1.246 3.182v.147c0 1.239.49 2.427 1.364 3.305l1.022 1.028a1.407 1.407 0 01-.998 2.4h-3.696a4.687 4.687 0 01-3.161-1.227l-2.355-2.151a4.687 4.687 0 01-1.526-3.46v-10.256c0-1.24.49-2.428 1.365-3.306l.387-.39a4.687 4.687 0 001.365-3.306v-4.18a.39.39 0 10-.78 0l-.001 2.316a1.168 1.168 0 11-2.336 0v-.867c0-1.087.418-2.131 1.168-2.918a4.227 4.227 0 001.168-2.917v-10.09c0-1.25.575-2.428 1.558-3.197a4.057 4.057 0 001.558-3.196v-27.71a4.687 4.687 0 00-1.563-3.496l-2.325-2.077a4.687 4.687 0 01-1.564-3.495v-3.625a4.687 4.687 0 00-1.35-3.29l-8.96-9.09a4.687 4.687 0 01-1.349-3.29v-5.189c0-1.234.487-2.418 1.354-3.295l5.08-5.139a4.687 4.687 0 001.354-3.295v-2.274a4.2 4.2 0 00-4.2-4.2h-3.41a4.687 4.687 0 01-3.067-1.143l-.328-.284a3.704 3.704 0 00-2.424-.903 1.38 1.38 0 01-1.38-1.38v-.509c0-1.129-.433-2.215-1.211-3.034a4.098 4.098 0 00-2.97-1.275h-.476c-1.214 0-2.38-.47-3.254-1.313l-3.705-3.572a4.687 4.687 0 00-3.253-1.313h-6.03a4.687 4.687 0 01-3.313-1.37l-4.818-4.813a4.687 4.687 0 01-1.375-3.317v-.423c0-1.256-.505-2.46-1.4-3.341l-4.496-4.423a3.698 3.698 0 01-1.105-2.637 3.5 3.5 0 00-1.147-2.59l-5.798-5.264a1.935 1.935 0 00-1.3-.502.28.28 0 00-.184.49l2.517 2.187a3.605 3.605 0 011.24 2.721v.832c0 .52.205 1.02.57 1.39l.548.558.041.042 3.277 3.253a.54.54 0 01-.38.923c-.844 0-1.66-.305-2.298-.858l-2.364-2.05a3.96 3.96 0 00-2.594-.968 1.478 1.478 0 01-1.478-1.477v-1.883c0-1.17-.438-2.3-1.228-3.163l-.66-.72a4.687 4.687 0 01-1.228-3.165v-2.843c0-.799-.648-1.447-1.447-1.447a3.445 3.445 0 01-2.46-1.034l-2.556-2.606a4.639 4.639 0 01-1.325-3.247 4.307 4.307 0 00-1.397-3.175l-.2-.184a4.687 4.687 0 01-1.52-3.455V96.098c0-.453.368-.821.821-.821.521 0 1.016.229 1.353.626l.205.24a.418.418 0 00.738-.27v-.368c0-.963-.393-1.883-1.087-2.549l-2.683-2.573a4.687 4.687 0 00-3.244-1.304h-.864c-.82 0-1.486-.665-1.486-1.486 0-.951-.379-1.863-1.053-2.534l-6.09-6.067a2.64 2.64 0 00-1.863-.77 1.09 1.09 0 01-1.09-1.09v-4.82a1.841 1.841 0 00-1.842-1.84 4.277 4.277 0 01-3.106-1.337l-1.744-1.843a4.687 4.687 0 00-3.404-1.465H35.55a3.92 3.92 0 01-2.788-1.165l-.174-.176a3.328 3.328 0 00-2.368-.989h-.225a1.165 1.165 0 100 2.33h.003a.098.098 0 01.017.194l-1.862.314a4.687 4.687 0 00-2.63 1.405l-1.545 1.638a.629.629 0 01-.896.02 1.511 1.511 0 01-.458-1.084v-.637c0-.82.307-1.61.861-2.215l.849-.926c.403-.44.626-1.015.626-1.61a.404.404 0 00-.68-.297l-1.68 1.562a5.023 5.023 0 00-.02.018l-2.06 1.938a3.212 3.212 0 00-1.012 2.34c0 .89-.354 1.742-.984 2.37l-4.659 4.646a3.997 3.997 0 01-2.822 1.167c-1.054 0-2.06.438-2.779 1.21l-2.15 2.31a3.657 3.657 0 01-2.678 1.165.67.67 0 01-.479-1.138l3.77-3.856a3.998 3.998 0 012.858-1.204 4.013 4.013 0 002.863-1.2l1.287-1.31a1.26 1.26 0 00-.898-2.142h-1.509c-.951 0-1.86.4-2.503 1.101a.581.581 0 01-1.01-.393V69.71a2.356 2.356 0 00-2.356-2.356h-.418a1.938 1.938 0 01-1.938-1.938v-.386c0-.857-.694-1.552-1.551-1.552H.75a.75.75 0 01-.75-.75c0-.478.195-.937.54-1.27l1.356-1.31a4.687 4.687 0 013.256-1.315h.725a1.938 1.938 0 100-3.875H1.821A1.82 1.82 0 010 53.137v-.452c0-.87.38-1.694 1.04-2.26l.414-.353a2.224 2.224 0 012.9.001l1.473 1.266a.719.719 0 001.187-.545c0-1.002-.404-1.96-1.12-2.66L1.525 43.87a2.47 2.47 0 01-.745-1.767c0-.575.466-1.041 1.04-1.041h.434c.94 0 1.839-.39 2.481-1.077l2.68-2.865a4.687 4.687 0 013.423-1.486h5.707a4.43 4.43 0 013.365 1.549 4.43 4.43 0 003.366 1.55h14.888c1.203 0 2.36.462 3.23 1.29l3.96 3.766a4.144 4.144 0 002.855 1.141c.915 0 1.656-.74 1.656-1.655v-.011a4.13 4.13 0 011.157-2.867l.247-.257a4.687 4.687 0 013.375-1.434h4.212c.775 0 1.525.275 2.116.776.59.501 1.34.777 2.116.777h.034a.485.485 0 00.33-.84l-.594-.551a.537.537 0 01.365-.932c.88 0 1.725.34 2.36.948l1.69 1.618a4.687 4.687 0 003.242 1.303h10.536a2.343 2.343 0 012.343 2.342 2.343 2.343 0 002.343 2.343h2.069a1.04 1.04 0 001.04-1.04.452.452 0 01.76-.33l1.676 1.565a1.353 1.353 0 002.276-.988v-.969c0-1.185.962-2.147 2.148-2.147h.45c1.09 0 2.14.415 2.936 1.161a4.293 4.293 0 002.936 1.162h6.41c1.223 0 2.399-.479 3.274-1.334l2.558-2.498a1.32 1.32 0 00-.003-1.891 1.323 1.323 0 01-.005-1.893l.98-.963a2.608 2.608 0 013.657.001l.822.809a1.38 1.38 0 01-.005 1.972 1.38 1.38 0 00-.004 1.973l1.71 1.683a1.67 1.67 0 002.347-.004l.461-.458a1.018 1.018 0 011.427-.008.988.988 0 01.012 1.405l-.16.162a1.203 1.203 0 00.022 1.718l.964.922a4.205 4.205 0 011.3 3.039c0 1.15-.464 2.25-1.286 3.054l-7.057 6.904a4.468 4.468 0 01-.024.023l-1.92 1.852a4.687 4.687 0 00-1.433 3.374v3.391c0 .86.697 1.558 1.558 1.558h.009c.856 0 1.55.694 1.55 1.55 0 .856.693 1.55 1.549 1.55h1.165c1.164 0 2.287.433 3.149 1.215l4.152 3.767a4.687 4.687 0 003.15 1.215h1.861c1.196 0 2.165.97 2.165 2.166v.19c0 1.263.51 2.472 1.414 3.354l1.253 1.224a1.966 1.966 0 002.745 0 1.861 1.861 0 00-.005-2.67l-.54-.522a3.155 3.155 0 01-.962-2.27c0-.855.345-1.675.958-2.273l1.224-1.195a2.955 2.955 0 00.015-4.215l-.5-.496a2.284 2.284 0 01-.005-3.242l.382-.38a1.719 1.719 0 00-.025-2.461 4.123 4.123 0 01-1.275-2.982v-.542a2.306 2.306 0 012.305-2.306h4.901c1.223 0 2.398.478 3.273 1.332l.634.618A4.045 4.045 0 00155 63.47c.909 0 1.646.737 1.646 1.646v.29c0 1.218.473 2.388 1.32 3.262l.363.374a2.353 2.353 0 003.372.007l2.327-2.382a.708.708 0 011.214.494 3.97 3.97 0 001.276 2.916l1.108 1.023a4.687 4.687 0 011.506 3.443v.01c0 1.14.923 2.062 2.062 2.062h2.938c1.086 0 1.967.881 1.967 1.968v.712c0 .813.276 1.603.781 2.24.506.637.781 1.426.781 2.24v.47c0 .954-.773 1.727-1.727 1.727h-.557c-1.06 0-2.077.418-2.832 1.162a4.034 4.034 0 01-2.832 1.16h-7.03a4.687 4.687 0 00-3.302 1.361l-5.104 5.066a2.644 2.644 0 00-.782 1.877.488.488 0 00.816.362l4.805-4.353a4.687 4.687 0 013.147-1.213h.68c1.228 0 2.225.996 2.225 2.225v.97c0 .813.273 1.604.777 2.243.504.64.778 1.43.778 2.244v.18c0 .792-.643 1.435-1.436 1.435h-3.633c-.643 0-1.165.521-1.165 1.164 0 .644-.521 1.165-1.164 1.165h-.859c-1.118 0-2.19.446-2.978 1.238l-.052.052a4.055 4.055 0 00-1.18 2.86 4.12 4.12 0 01-1.167 2.872l-1.423 1.463-.03.03-2.272 2.378-.07.075-.608.665a2.452 2.452 0 00-.643 1.655v2.19a.78.78 0 01-1.562 0v-1.552a.448.448 0 00-.78-.299l-.124.138a2.57 2.57 0 00-.657 1.716c0 .63.25 1.235.694 1.681l.087.086c.5.502.78 1.181.78 1.89v.313c0 .906-.37 1.773-1.025 2.399l-5.441 5.2a4.297 4.297 0 00-1.329 3.106v.89c0 .626.125 1.244.368 1.82l.827 1.963c.242.576.367 1.195.367 1.82v2.207c0 .786-.637 1.424-1.424 1.424a3.671 3.671 0 01-2.475-.96l-1.249-1.14a3.27 3.27 0 01-1.065-2.415c0-.931-.328-1.833-.927-2.547l-.476-.568a4.682 4.682 0 00-3.588-1.674h-3.663a.68.68 0 00-.48 1.162.68.68 0 01-.48 1.16h-1.318a4.61 4.61 0 01-3.06-1.16 4.61 4.61 0 00-3.058-1.162h-.23c-1.25 0-2.432.57-3.212 1.548l-1.878 2.358a4.687 4.687 0 00-1.021 2.92v10.286c0 1.268.514 2.482 1.425 3.365l2.286 2.217a4.687 4.687 0 003.263 1.322h2.074a4.687 4.687 0 003.293-1.352l2.27-2.24a3.674 3.674 0 012.58-1.06c.833 0 1.508.675 1.508 1.508v4.663a2.356 2.356 0 002.356 2.356 2.356 2.356 0 012.356 2.356v5.774c0 1.327.563 2.591 1.548 3.48l.386.348a4.687 4.687 0 003.14 1.208h3.234a4.687 4.687 0 003.158-1.224l1.063-.968a3.475 3.475 0 012.34-.907c.85 0 1.651-.394 2.17-1.065l.019-.023a.47.47 0 01.841.287v2.732a1.168 1.168 0 102.336 0v-1.419c0-.708.574-1.282 1.282-1.282.824 0 1.618.312 2.22.874l.308.287a4.323 4.323 0 002.948 1.161h3.472c1.198 0 2.351.46 3.222 1.283l3.233 3.06.017.016 2.26 2.119a4.687 4.687 0 003.206 1.267h5.711c1.239 0 2.427.49 3.305 1.363l.161.16a4.687 4.687 0 011.383 3.324v3.117c0 1.211.469 2.376 1.308 3.249l.526.547a4.687 4.687 0 003.379 1.439h.68a2.676 2.676 0 012.676 2.675v.035a2.71 2.71 0 002.71 2.711h2.613c1.17 0 2.298.438 3.162 1.227l1.555 1.421a4.687 4.687 0 003.162 1.227h1.058a2.873 2.873 0 012.873 2.873v.005l-.005 3.242a4.687 4.687 0 01-1.425 3.357zm-67.268-58.896a.27.27 0 01.194-.457h.122a.324.324 0 00.234-.549l-1.334-1.393a2.338 2.338 0 00-1.689-.721 2.35 2.35 0 01-1.691-.72l-.086-.088a2.64 2.64 0 00-1.9-.808h-3.452a.787.787 0 01-.619-1.273 3.325 3.325 0 012.616-1.272h1.058c.63 0 1.232.256 1.668.71.436.455 1.038.711 1.668.711h.738c1.102 0 2.156.45 2.918 1.244l2.07 2.157c.607.632 1.445.99 2.321.99h.407a.964.964 0 110 1.928l-4.163-.001c-.407 0-.797-.165-1.08-.458zm1.07 3.435h-.375c-.59 0-1.16-.212-1.607-.596a.339.339 0 01.22-.595h.334c.6 0 1.183.21 1.644.595a.337.337 0 01-.215.596zm7.058-1.568a.483.483 0 01.352-.814h3.941c.382 0 .747.159 1.008.437l.007.008c.256.274.614.43.99.43.375 0 .733.155.99.43l.302.323a.448.448 0 01-.327.754h-7.792c-.36 0-.709-.135-.976-.377a.216.216 0 01.145-.377h1.008a.483.483 0 00.352-.814zm65.87-106.064l-2.817 2.756a4.687 4.687 0 01-3.278 1.337h-.748c-1.27 0-2.486.515-3.37 1.428l-.438.454a4.687 4.687 0 00-1.318 3.259v.312a4.44 4.44 0 01-1.173 3.007 4.44 4.44 0 00-1.174 3.008v3.976a2.367 2.367 0 01-2.367 2.367h-.544a4.687 4.687 0 01-3.167-1.232l-1.061-.972a3.478 3.478 0 00-2.35-.914 3.235 3.235 0 01-2.303-.963l-2.718-2.755a2.654 2.654 0 01-.015-3.712l.307-.316a2.224 2.224 0 000-3.097l-.44-.454a3.603 3.603 0 00-2.586-1.095A1.525 1.525 0 01184.935 55v-2.47c0-1.293.534-2.529 1.477-3.415l1.11-1.044a3.461 3.461 0 00.09-4.956l-2.96-2.991a.293.293 0 00-.502.206.713.713 0 01-.712.712h-.461a1.174 1.174 0 01-1.174-1.173v-5.334c0-1.35-.582-2.634-1.597-3.524l-4.037-3.54a4.687 4.687 0 00-3.09-1.162h-5.428a4.687 4.687 0 00-3.15 1.216l-.013.012a1.919 1.919 0 01-2.646-.063l-6.768-6.76a1.74 1.74 0 01.005-2.468 4.259 4.259 0 012.996-1.23h6.015c.973 0 1.911-.368 2.626-1.028l.123-.113a1.239 1.239 0 00-.004-1.824 3.47 3.47 0 00-2.342-.91h-.55a.807.807 0 01-.581-1.367l2.516-2.615a4.687 4.687 0 013.378-1.438h1.077a4.07 4.07 0 002.85-1.164 4.07 4.07 0 012.85-1.164h8.053c1.213 0 2.378.47 3.252 1.312l.454.438a1.072 1.072 0 001.817-.773 2.522 2.522 0 012.522-2.523h2.275c.531 0 1.054-.133 1.52-.388a3.169 3.169 0 011.52-.388h5.03a4.687 4.687 0 003.36-1.418l.228-.235A4.687 4.687 0 01209.424 0h11.508c.855 0 1.549.693 1.549 1.549 0 .855.693 1.549 1.548 1.549h5.328c1.188 0 2.332.451 3.2 1.262l.722.675a1.12 1.12 0 01-.764 1.937h-8.289c-.38 0-.746.138-1.032.388a.221.221 0 00.146.388h6.401c1.186 0 2.148.962 2.148 2.148a.868.868 0 001.492.603l2.023-2.095a4.687 4.687 0 013.372-1.432h3.018c1.132 0 2.226-.41 3.08-1.153l.017-.016a4.687 4.687 0 013.08-1.153h.454c1.272 0 2.489.517 3.372 1.432l.784.811c.563.583.566 1.506.009 2.093a3.374 3.374 0 01-2.447 1.05h-.91c-1.208 0-2.37.467-3.242 1.303l-4.831 4.627a4.687 4.687 0 00-1.445 3.385v1.13c0 .65.527 1.178 1.177 1.178s1.176.527 1.176 1.177v.372c0 .855-.693 1.549-1.549 1.549h-1.193a2.743 2.743 0 00-2.743 2.742v1.405c0 1.203-.463 2.36-1.293 3.232l-1.312 1.378a1.442 1.442 0 01-2.065.025l-.3-.3a2.544 2.544 0 00-1.8-.748c-.583 0-1.056.473-1.056 1.056v.493c0 .856.694 1.55 1.55 1.55h2.536c1.202 0 2.178.974 2.178 2.177v.217a4.687 4.687 0 01-1.396 3.338l-6.194 6.108a4.687 4.687 0 01-3.268 1.35l-2.89.014a4.687 4.687 0 00-3.254 1.337zm15.136 7.185v-1.35c0-.906.734-1.64 1.639-1.64h.548c.702 0 1.378.262 1.897.735.45.41 1.144.39 1.572-.043l.326-.33a3.716 3.716 0 012.646-1.108h.797c1.282 0 2.508.525 3.393 1.453l.11.114c.831.873.818 2.25-.032 3.106l-2.848 2.87a4.687 4.687 0 01-3.328 1.387h-1.603a4.687 4.687 0 01-3.57-1.652l-.431-.506a4.687 4.687 0 01-1.116-3.036zm123.07 169.072l-1.98 2.066a4.687 4.687 0 00-1.305 3.244v5.11c0 1.239-.49 2.427-1.364 3.306l-1.11 1.115a3.168 3.168 0 01-4.496-.004l-.887-.895a4.687 4.687 0 01-1.36-3.3v-2.374c0-1.13.41-2.22 1.152-3.072a4.677 4.677 0 001.151-3.073v-2.459c0-1.256.505-2.46 1.4-3.341l2.564-2.522a4.75 4.75 0 00.034-.034l3.206-3.218a2.004 2.004 0 012.834-.005l.008.007.074.075a4.687 4.687 0 011.361 3.265l.023 2.827a4.687 4.687 0 01-1.305 3.282zm89.51-20.626a1.567 1.567 0 01.002-2.182l.235-.241a1.63 1.63 0 012.008-.26 4.657 4.657 0 002.4.665h5.833c1.127 0 2.216.406 3.069 1.144l.026.023a4.687 4.687 0 003.069 1.144h8.347a.684.684 0 01.495 1.155 3.724 3.724 0 01-2.696 1.156h-9.277c-.806 0-1.59-.271-2.224-.77a3.582 3.582 0 00-2.223-.765l-6.488.019a3.57 3.57 0 01-2.576-1.088zm20.418-25.348a2.658 2.658 0 01-1.783.686h-.501c-.843 0-1.526.683-1.526 1.526v.337c0 1.188.493 2.324 1.36 3.136l.793.742a.848.848 0 01.03 1.21 2.13 2.13 0 00-.603 1.484v2.303c0 1.28-.523 2.505-1.45 3.39l-2.423 2.314a4.687 4.687 0 01-3.238 1.298h-.765a4.687 4.687 0 01-3.067-1.142l-.268-.232a4.205 4.205 0 01-1.455-3.18v-.372c0-.983-.434-1.917-1.186-2.55a3.336 3.336 0 01-1.187-2.552v-.665c0-1.087.847-1.986 1.932-2.052l.078-.004a4.687 4.687 0 003.129-1.465l6.42-6.813a3.027 3.027 0 014.267-.138l1.453 1.355a.94.94 0 01-.01 1.384zm-1.044-34.622c0-1.182.484-2.313 1.338-3.129l.306-.292a2.253 2.253 0 012.852-.215l.207.146a1.35 1.35 0 01.183 2.053l-.366.37a2.618 2.618 0 00-.757 1.84c0 .595-.482 1.077-1.076 1.077h-.836a1.85 1.85 0 01-1.85-1.85zm11.686 59.002c.515 0 .933.418.933.933v.227c0 .741-.303 1.45-.839 1.962l-2.38 2.276a2.004 2.004 0 01-1.385.555.804.804 0 01-.804-.803v-.267c0-.688.26-1.351.729-1.855l2.177-2.344a2.141 2.141 0 011.569-.684zm39.768 71.464l-1.97 1.866a3.961 3.961 0 01-2.725 1.086 2.57 2.57 0 01-2.293-1.408l-1.294-2.551a4.687 4.687 0 01-.507-2.12v-1.042c0-.67.544-1.214 1.214-1.214h.077a1.18 1.18 0 011.18 1.136 1.18 1.18 0 001.18 1.135h2.709c1.003 0 1.967-.39 2.69-1.086a.674.674 0 011.141.478l.005.402a4.507 4.507 0 01-1.407 3.318zm5.963-22.205l-4.116 3.886a4.687 4.687 0 00-1.47 3.409v1.056c0 1.235-.487 2.42-1.355 3.297l-2.459 2.485a1.235 1.235 0 01-1.771-.016 2.969 2.969 0 00-2.148-.92h-5.724a2.266 2.266 0 01-2.266-2.266v-.354c0-1.225-.48-2.402-1.337-3.278l-.462-.472a4.687 4.687 0 01-1.337-3.279v-.72a.644.644 0 00-1.108-.447 1.617 1.617 0 01-2.273.059l-2.8-2.628a4.687 4.687 0 00-3.208-1.27h-1.36c-.851 0-1.68.27-2.37.77-.689.5-1.519.77-2.37.77h-4.13a4.687 4.687 0 00-3.326 1.384l-5.677 5.716a4.687 4.687 0 01-3.326 1.384h-4.66a1.816 1.816 0 01-1.816-1.816c0-1.158.483-2.264 1.332-3.05l1.087-1.007a4.687 4.687 0 001.503-3.44v-2.515c0-1.336-.57-2.61-1.568-3.498l-4.5-4.014a.416.416 0 01.276-.726 1.09 1.09 0 001.09-1.09v-4.625c0-1.196.458-2.347 1.28-3.217l4.133-4.38a4.28 4.28 0 013.113-1.343 4.471 4.471 0 003.154-1.302l7.674-7.639a1.894 1.894 0 012.592-.075 1.883 1.883 0 002.585-.082l2.615-2.633a4.687 4.687 0 013.325-1.384h5.348a2.599 2.599 0 012.599 2.6v.683c0 1.228.481 2.406 1.341 3.283l1.189 1.211a2.477 2.477 0 003.546-.01l.445-.458a4.687 4.687 0 001.323-3.264v-4.646a.914.914 0 011.569-.638l.262.268a4.59 4.59 0 011.306 3.207c0 1.196.481 2.34 1.335 3.177l.394.386a4.687 4.687 0 011.407 3.349v1.207c0 1.332.568 2.602 1.56 3.491l5.99 5.366a3.29 3.29 0 011.094 2.45c0 .945.355 1.856.994 2.552l1.698 1.848a4.687 4.687 0 011.234 3.162l.013 6.629a4.687 4.687 0 01-1.47 3.417zm-7.193-44.497h-.612a4.687 4.687 0 01-3.435-1.498l-1.641-1.768a4.442 4.442 0 00-3.255-1.42h-.388a1.55 1.55 0 00-1.55 1.55 1.55 1.55 0 01-1.55 1.55h-1.998c-.641 0-1.161-.52-1.161-1.162 0-.641-.52-1.16-1.162-1.16h-2.868a.622.622 0 01-.411-1.089 1.49 1.49 0 00.028-2.207l-2.604-2.424a4.687 4.687 0 00-3.194-1.256h-.878a.768.768 0 01-.535-1.319l.637-.619c.46-.447.72-1.062.72-1.704 0-.554-.45-1.004-1.004-1.004h-1.767a1.165 1.165 0 110-2.33h4.045c1.028 0 1.861.834 1.861 1.861a.82.82 0 001.373.605l.632-.58a1.877 1.877 0 012.555.019 4.393 4.393 0 003.012 1.195h.1c1.183 0 2.322.45 3.186 1.26l4.281 4.01a3.434 3.434 0 002.348.929h.223c.626 0 1.134.508 1.134 1.134 0 .725.295 1.42.817 1.922l3.804 3.663a1.071 1.071 0 01-.743 1.842zm1.69-14.571a1.326 1.326 0 011.853 0l.914.894a4.007 4.007 0 011.204 2.864 4.22 4.22 0 01-1.16 2.907l-.47.495a4.687 4.687 0 01-3.399 1.458h-1.08a1.102 1.102 0 01-1.102-1.102c0-.636.46-1.18 1.087-1.286l.266-.045a4.18 4.18 0 002.307-1.216l.223-.23a1.68 1.68 0 00-.05-2.384l-.582-.555a1.251 1.251 0 01-.012-1.8zm-14.346-88.864l-.483-.47a1.562 1.562 0 00-2.184.003 1.353 1.353 0 00.104 2.022l2.167 1.73a3.44 3.44 0 011.295 2.69v.88a.775.775 0 01-.775.775.775.775 0 00-.775.775v1.964c0 1.134-.41 2.23-1.157 3.083l-.228.262a4.635 4.635 0 01-3.492 1.586h-.964a1.15 1.15 0 00-1.15 1.15 1.15 1.15 0 01-1.148 1.149h-.43a3.8 3.8 0 01-2.671-1.097 1.58 1.58 0 00-2.22.001l-2.371 2.345a.737.737 0 01-1.256-.524c0-1.129.457-2.209 1.267-2.995l1.032-1.003a4.687 4.687 0 013.266-1.324h.78a4.687 4.687 0 003.4-1.462l2.943-3.103a4.687 4.687 0 001.286-3.226v-5.876c0-1.017.422-1.988 1.164-2.684a3.676 3.676 0 001.164-2.683v-1.126a.727.727 0 011.342-.387l.616.98a2.466 2.466 0 002.087 1.153c.873 0 1.711.343 2.334.954l.192.189a1.606 1.606 0 01.003 2.288l-1.995 1.97a2.244 2.244 0 01-3.143.01zm47.937 172.285a1.02 1.02 0 00-1.021 1.021v.364c0 .888-.35 1.74-.972 2.373l-.992 1.006a2.822 2.822 0 01-3.973.047l-.11-.107a2.845 2.845 0 01.01-4.096l2.255-2.164a2.69 2.69 0 011.863-.75c.597 0 1.082-.484 1.082-1.082v-.07c0-.637.516-1.153 1.153-1.153h.422c.87 0 1.576-.705 1.576-1.576v-.181a.727.727 0 011.242-.514l.728.73a2.78 2.78 0 01-.01 3.937l-1.508 1.496a2.479 2.479 0 01-1.745.72zm9.49-9.75c-.638 0-1.154.516-1.154 1.153v1.218c0 .536-.142 1.061-.412 1.524a1.423 1.423 0 01-1.23.706h-.308a1.126 1.126 0 01-1.126-1.126v-.396c0-.944-.494-1.82-1.302-2.308l-.606-.367a.98.98 0 01-.288-1.411 3.29 3.29 0 00.621-1.924V263.5a4.524 4.524 0 00-1.329-3.203l-.722-.72a.843.843 0 01.008-1.202.858.858 0 011.212.017l2.427 2.489c.455.467.71 1.094.71 1.746 0 .65.264 1.273.732 1.724l.873.84a.873.873 0 001.146.058l.099-.078a1.832 1.832 0 011.133-.393.64.64 0 01.64.635l.018 2.09a1.143 1.143 0 01-1.143 1.153zm9.591-213.403h-.45a4.687 4.687 0 01-3.3-1.358l-2.144-2.124a.872.872 0 00-1.486.62 2.093 2.093 0 01-2.093 2.092h-3.069a1.62 1.62 0 00-1.195 2.712l.393.43a1.363 1.363 0 01-1.005 2.282h-1.21c-1.209 0-2.37.467-3.243 1.302l-3.755 3.597a4.687 4.687 0 01-3.242 1.302h-4.565c-1.21 0-2.372.468-3.245 1.306l-2.724 2.614a4.687 4.687 0 00-1.442 3.382v2.138a2.76 2.76 0 01-.78 1.924c-.501.515-.781 1.205-.781 1.924v.9c0 1.24-.492 2.43-1.367 3.309l-4.587 4.603a3.728 3.728 0 01-2.641 1.096 1.548 1.548 0 01-1.548-1.548v-8.89c0-1.248.498-2.445 1.384-3.325l3.649-3.626.003-.003 5.262-5.219a4.687 4.687 0 001.386-3.328v-.796c0-1.07-.868-1.939-1.938-1.939a4.68 4.68 0 00-3.31 1.371l-5.088 5.09-.03.03-1.38 1.406a4.687 4.687 0 01-3.346 1.405h-2.296c-.716 0-1.296-.58-1.296-1.296a.59.59 0 00-.977-.446l-1.55 1.348a4.687 4.687 0 01-3.076 1.15h-5.676c-1.214 0-2.38.471-3.254 1.314l-8.617 8.31a1.164 1.164 0 00.808 2.001h1.508c.882 0 1.73-.346 2.36-.964a1.287 1.287 0 011.878.08l.063.074c.619.722.959 1.64.959 2.591v8.83c0 1.225-.48 2.402-1.337 3.278l-8.578 8.768a4.687 4.687 0 01-3.35 1.41h-1.028c-1.187 0-2.33.45-3.197 1.26l-4.395 4.1a4.687 4.687 0 00-1.49 3.427v.489a2.356 2.356 0 002.356 2.356 2.356 2.356 0 012.355 2.355v2.167a4.687 4.687 0 01-1.29 3.23l-1.566 1.648a1.192 1.192 0 01-1.754-.029 3.403 3.403 0 01-.862-2.263v-3.607c0-.65-.527-1.178-1.177-1.178s-1.178-.527-1.178-1.178v-1.588a1.11 1.11 0 00-1.11-1.11c-.71 0-1.39.287-1.882.798l-.454.47a.712.712 0 01-1.225-.495v-1.971a1.117 1.117 0 00-1.918-.778l-.538.553a4.687 4.687 0 01-3.363 1.422h-1.355a.889.889 0 00-.593 1.55l.444.398a4.513 4.513 0 003.012 1.152h.217c.967 0 1.896.38 2.586 1.059.594.583.603 1.538.02 2.132l-.002.001-.26.264a1.866 1.866 0 00.03 2.648l1.851 1.797a4.687 4.687 0 011.424 3.364v5.104c0 1.25-.5 2.448-1.387 3.328l-8.49 8.421a4.687 4.687 0 01-3.3 1.36h-1.757a4.687 4.687 0 00-3.144 1.211l-1.412 1.277a4.687 4.687 0 00-1.543 3.476v.287a.995.995 0 01-1.69.71l-.1-.097a2.554 2.554 0 00-3.578.002l-.417.41a3.081 3.081 0 00-.031 4.364l2.126 2.151a4.687 4.687 0 011.354 3.295v4.422c0 1.252-.5 2.451-1.39 3.332l-1.016 1.005a3.424 3.424 0 01-4.814.001l-2.55-2.52a1.578 1.578 0 00-2.688 1.122v1.74c0 1.3.54 2.54 1.49 3.427l3.477 3.242a3.981 3.981 0 011.266 2.912v.781c0 .608.242 1.19.673 1.62.43.428.673 1.01.673 1.618v.216c0 .745.3 1.46.832 1.98l.267.262c.42.412.657.976.657 1.565 0 .591.227 1.16.633 1.59l1.345 1.421c.602.636.937 1.478.937 2.353 0 .872-.347 1.709-.965 2.325l-.183.183a1.633 1.633 0 01-2.3.006l-2.939-2.902a4.687 4.687 0 01-1.394-3.335v-.12a4.687 4.687 0 00-1.37-3.312l-4.48-4.487a4.687 4.687 0 01-1.37-3.377l.02-1.514a.894.894 0 01.894-.881.375.375 0 00.27-.635l-.472-.49a3.873 3.873 0 01-1.084-2.687v-7.452a4.687 4.687 0 00-1.43-3.37l-1.079-1.043a1.787 1.787 0 00-2.481-.003.733.733 0 01-1.242-.528v-3.637a4.687 4.687 0 00-1.401-3.343l-3.435-3.376a4.373 4.373 0 00-6.131 0l-1.664 1.635a4.687 4.687 0 00-1.402 3.343v.791c0 1.265-.51 2.476-1.417 3.358l-2.618 2.55a4.687 4.687 0 00-1.417 3.358v2.765a4.687 4.687 0 01-1.452 3.392l-3.805 3.63a3.493 3.493 0 01-4.798.02l-.926-.867a4.687 4.687 0 01-1.484-3.42v-4.431a4.687 4.687 0 00-1.308-3.25l-.5-.518a4.687 4.687 0 01-1.308-3.25v-8.995a.763.763 0 00-1.302-.54 1.83 1.83 0 01-2.594-.01l-4.11-4.166a4.687 4.687 0 00-3.336-1.396h-4.958a4.687 4.687 0 01-3.237-1.297l-2.156-2.059a4.687 4.687 0 00-3.237-1.298h-2.912a4.687 4.687 0 01-3.313-1.371l-3.795-3.792a3.544 3.544 0 00-2.505-1.037c-.81 0-1.467.656-1.467 1.467v2.785c0 1.076.872 1.948 1.948 1.948 1.077 0 1.949.873 1.949 1.949v1.174a2.309 2.309 0 002.308 2.308h.493a4.687 4.687 0 003.158-1.223l.343-.313a1.995 1.995 0 012.797.106 4.546 4.546 0 003.31 1.43h.224c1.208 0 2.187.98 2.187 2.188v2.28c0 1.278-.521 2.5-1.444 3.385l-5.81 5.57a4.687 4.687 0 01-3.244 1.302h-.623c-1.287 0-2.518.53-3.403 1.464l-3.836 4.05a4.687 4.687 0 01-3.403 1.464h-.599a2.615 2.615 0 01-2.614-2.615v-4.82a4.687 4.687 0 00-1.372-3.313l-2.089-2.09a3.857 3.857 0 00-2.728-1.13 1.598 1.598 0 01-1.599-1.599v-2.173a4.687 4.687 0 00-1.243-3.18l-2.224-2.41a4.687 4.687 0 01-1.244-3.18v-3.73a.777.777 0 00-1.555 0v8.193c0 1.3.54 2.542 1.49 3.428l.136.127a4.687 4.687 0 011.49 3.428v1.676c0 1.051.421 2.059 1.168 2.798l.014.013a3.89 3.89 0 011.154 2.766c0 1.04.41 2.039 1.142 2.778l5.887 5.954c.49.495.765 1.164.765 1.861v.08c0 .557.452 1.009 1.01 1.009.65 0 1.277-.24 1.762-.673l.546-.49a4.563 4.563 0 013.042-1.161h4.174a2.719 2.719 0 012.718 2.719v.698c0 1.29-.531 2.522-1.468 3.408l-2.515 2.375a4.687 4.687 0 00-1.468 3.407v.772a4.687 4.687 0 01-1.423 3.363l-11.962 11.609a4.687 4.687 0 00-1.422 3.364v8.188c0 1.031.421 2.017 1.167 2.73a3.774 3.774 0 011.168 2.729v7.625a4.687 4.687 0 01-1.115 3.035l-.022.027a3.798 3.798 0 01-2.895 1.339h-.205c-1.24 0-2.428.49-3.306 1.364l-1.843 1.833a1.874 1.874 0 00.088 2.74 4.426 4.426 0 011.51 3.33v3.103a2.356 2.356 0 01-2.355 2.355h-1.04c-.726 0-1.315.59-1.315 1.316v.062c0 .805.31 1.579.864 2.161.48.503.464 1.298-.033 1.782l-10.673 10.38a4.687 4.687 0 01-3.268 1.328h-.76a3.575 3.575 0 00-2.64 1.165 3.575 3.575 0 01-2.641 1.166h-2.446a1.71 1.71 0 01-1.711-1.711v-.497c0-.784.28-1.542.787-2.138a1.24 1.24 0 00-.119-1.732l-.661-.589a4.68 4.68 0 01-1.569-3.496v-1.974c0-1.106-.39-2.175-1.102-3.02l-.13-.155a4.687 4.687 0 01-1.103-3.02v-5.998c0-1.31-.548-2.559-1.51-3.446l-4.774-4.401a4.687 4.687 0 01-1.51-3.446v-4.031c0-.998.426-1.95 1.171-2.614a3.503 3.503 0 001.171-2.614v-12.453c0-1.263-.51-2.473-1.413-3.355l-4.377-4.27a2.67 2.67 0 01-.021-3.802l.539-.539a4.687 4.687 0 001.375-3.317v-.715a2.658 2.658 0 00-2.658-2.658h-4.38a2.31 2.31 0 01-2.31-2.31 2.31 2.31 0 00-2.31-2.31h-.744a4.687 4.687 0 00-3.313 1.371l-1.878 1.877a4.687 4.687 0 01-3.314 1.372h-8.6a4.687 4.687 0 01-3.397-1.457l-2.419-2.543a4.687 4.687 0 01-1.29-3.23v-.397c0-1.287-.53-2.517-1.464-3.402l-6.477-6.138a2.719 2.719 0 01-.122-3.823l.578-.623a4.687 4.687 0 001.252-3.19v-5.987c0-.783-.276-1.54-.78-2.14a3.323 3.323 0 01-.781-2.14v-1.723c0-1.241.492-2.432 1.37-3.311l5.248-5.258a3.805 3.805 0 012.693-1.118c.872 0 1.579-.706 1.579-1.578v-5.503c0-1.347.58-2.63 1.59-3.52l3.361-2.956a4.687 4.687 0 013.097-1.168h3.56a4.687 4.687 0 003.36-1.42l1.009-1.037a4.687 4.687 0 013.361-1.42h12.717c1.009 0 1.98.384 2.714 1.075a1.511 1.511 0 01.027 2.177l-.152.15a3.851 3.851 0 00-1.147 2.742c0 .89.721 1.61 1.61 1.61h2.068c1.2 0 2.353.46 3.224 1.285l1.73 1.64a3.454 3.454 0 002.376.946c.881 0 1.726.35 2.348.975l.236.237a.707.707 0 001.208-.5v-3.317c0-.7.567-1.266 1.266-1.266.812 0 1.592.314 2.179.876l1.765 1.691a4.687 4.687 0 003.243 1.304h6.815c.753 0 1.48-.275 2.043-.774a3.084 3.084 0 012.043-.773h.63c1.155 0 2.27-.433 3.122-1.213l3.41-3.119a4.687 4.687 0 001.524-3.458v-.112a2.176 2.176 0 00-2.177-2.176h-4.379c-1.02 0-2 .392-2.74 1.095-.64.61-1.65.6-2.28-.023l-3.884-3.843a3.04 3.04 0 01-.902-2.161c0-.7.568-1.269 1.269-1.269h1.566a4.687 4.687 0 003.292-1.35l1.974-1.947a4.687 4.687 0 013.291-1.35h2.74c.632 0 1.23.284 1.627.773.398.49.996.774 1.627.774h2.689a4.687 4.687 0 003.345-1.405l.009-.008a1.736 1.736 0 00-.195-2.604l-1.475-1.11a4.687 4.687 0 01-.446-.382l-1.763-1.711a4.573 4.573 0 00-3.185-1.291h-.33c-.976 0-1.91.389-2.598 1.081a1.486 1.486 0 01-2.128-.019l-.127-.132a3.691 3.691 0 01-1.026-2.554c0-.82-.664-1.484-1.483-1.484h-.367c-.7 0-1.266.567-1.266 1.266 0 .816-.296 1.604-.834 2.218l-1.903 2.175a4.687 4.687 0 00-1.16 3.087v.582a2.344 2.344 0 01-2.344 2.344h-2.454c-1.06 0-2.088.36-2.917 1.019l-.638.507a4.687 4.687 0 00-1.77 3.669v2.422a.666.666 0 01-1.154.452l-.135-.145a3.825 3.825 0 01-1.02-2.6v-.332c0-.645-.522-1.168-1.167-1.168a1.168 1.168 0 01-1.168-1.168v-1.52c0-1.032-.43-2.016-1.188-2.716a3.699 3.699 0 01-1.188-2.716v-.167c0-.986-.799-1.785-1.784-1.785h-1.397c-.983 0-1.93-.372-2.65-1.04l-1.117-1.038a2.102 2.102 0 01-.008-.008l-1.222-1.14a.695.695 0 00-1.17.508c0 1.025.403 2.01 1.123 2.74l5.414 5.498c.24.244.507.46.794.646l2.236 1.446c.35.227.562.616.562 1.034 0 .37-.3.67-.67.67h-.5c-.648 0-1.172.523-1.172 1.17v.108c0 .824-.304 1.619-.853 2.233l-.315.352a.669.669 0 01-1.167-.446v-1.373c0-1.335-.57-2.607-1.565-3.496l-2.882-2.575a2.443 2.443 0 00-1.628-.621.932.932 0 01-.932-.932v-.407c0-.85-.376-1.654-1.028-2.198l-.979-.818a4.687 4.687 0 00-3.004-1.09h-.165a4.286 4.286 0 00-2.94 1.17l-.448.422a1.093 1.093 0 01-1.542-.041 2.54 2.54 0 00-1.837-.787h-.942a1.915 1.915 0 00-1.915 1.915v.006c0 1.224-.48 2.4-1.335 3.275l-2.002 2.05a4.687 4.687 0 00-1.334 3.275v.227a3.717 3.717 0 01-1.346 2.862l-.045.038a4.687 4.687 0 01-2.99 1.077h-1.139a3.596 3.596 0 00-2.738 1.266l-.511.6a.321.321 0 01-.566-.208.874.874 0 00-.874-.874h-.563c-.92 0-1.803-.364-2.456-1.014l-1.342-1.335a3.407 3.407 0 01-1.004-2.416c0-.904.37-1.768 1.026-2.391l.91-.864a3.79 3.79 0 001.18-2.748v-.194c0-.791-.642-1.433-1.434-1.433a.613.613 0 01-.443-1.037l.586-.614a4.687 4.687 0 013.39-1.45h2.202c.782 0 1.54.275 2.14.777.6.502 1.357.777 2.14.777h.673c.79 0 1.563-.233 2.221-.67a2.257 2.257 0 001.01-1.88v-1.858a4.555 4.555 0 00-1.65-3.507l-.816-.677a2.997 2.997 0 00-1.912-.69 1.08 1.08 0 01-1.08-1.08v-.084c0-.644.521-1.165 1.165-1.165h.287c.848 0 1.673-.277 2.35-.787l.055-.041a3.699 3.699 0 012.227-.746c.79 0 1.547-.324 2.093-.896l3.07-3.22a4.68 4.68 0 00.105-.114l.904-1.013c.615-.69.955-1.583.955-2.508v-.834a2.27 2.27 0 012.27-2.27h3.75c.611 0 1.211-.16 1.74-.465.5-.288.808-.821.808-1.398v-4.966c0-1.074.42-2.106 1.171-2.874a.683.683 0 011.171.477v1.326c0 .513.416.93.93.93.596 0 1.17.228 1.602.638l2.19 2.074a4.223 4.223 0 002.904 1.158h.266c.916 0 1.802-.32 2.507-.904a1.576 1.576 0 012.105.084l.705.686a.458.458 0 00.777-.328c0-.6.486-1.085 1.085-1.085h.12c.665 0 1.205-.54 1.205-1.205v-2.657a2.339 2.339 0 012.339-2.34h.011a2.327 2.327 0 002.327-2.326 2.327 2.327 0 012.327-2.327h1.022c1.275 0 2.495-.52 3.379-1.438l.107-.112a.916.916 0 00-.66-1.55h-3.834a4.434 4.434 0 00-3.35 1.53l-.324.373a.57.57 0 01-1.002-.373v-.36c0-.646-.524-1.17-1.171-1.17a1.171 1.171 0 01-1.171-1.172v-1.74c0-1.268.514-2.482 1.424-3.365l4.598-4.457.071-.068.84-.78a.47.47 0 00-.32-.813h-4.104c-.635 0-1.248.239-1.715.67l-.7.643a4.673 4.673 0 00-.054.052l-3.295 3.135a4.687 4.687 0 00-1.457 3.396v1.79c0 .97.388 1.901 1.077 2.585l.275.272a1.108 1.108 0 01-.009 1.583l-.8.775a4.649 4.649 0 00-.022.022l-1.987 1.954a2.908 2.908 0 00-.869 2.073 2.9 2.9 0 01-.87 2.072l-.927.908a1.87 1.87 0 01-2.635-.017l-1.3-1.307a5.53 5.53 0 00-.018-.017l-2.543-2.53a2 2 0 00-2.789-.033l-.053.05a4.687 4.687 0 01-3.228 1.29h-2.392a1.915 1.915 0 01-1.915-1.916c0-1.227.483-2.405 1.345-3.278l.71-.72a1.678 1.678 0 00-.026-2.383 1.668 1.668 0 01-.019-2.376l2.11-2.112a3.946 3.946 0 012.792-1.157c.903 0 1.635-.733 1.635-1.636v-.303c0-1.07.868-1.939 1.939-1.939h.01a1.948 1.948 0 001.948-1.948v-.647c0-1.26.508-2.469 1.41-3.35l6.037-5.906a4.655 4.655 0 013.255-1.327 4.237 4.237 0 003.161-1.416l.798-.895a4.687 4.687 0 013.498-1.566h5.155c.98 0 1.91.425 2.551 1.165a3.376 3.376 0 002.552 1.165h.437c1.047 0 2.05.418 2.786 1.162a3.922 3.922 0 002.787 1.162h3.962c1.199 0 2.351.459 3.222 1.282l1.742 1.648a2.563 2.563 0 01-.008 3.733l-.898.841a3.77 3.77 0 01-2.579 1.02 3.645 3.645 0 01-2.554-1.045l-.943-.926a1.738 1.738 0 00-2.436 0l-.096.094a.642.642 0 00.45 1.1c.868 0 1.571.704 1.571 1.572v1.167c0 1.129.444 2.212 1.235 3.017a1.707 1.707 0 002.452-.018l2.371-2.483.053-.054 3.308-3.352a4.687 4.687 0 013.337-1.395h1.027c1 0 1.812-.811 1.812-1.812a.794.794 0 011.332-.584l.485.447a2.582 2.582 0 003.57-.068l2.873-2.855a4.687 4.687 0 013.304-1.363h11.737a.893.893 0 00.605-1.55.893.893 0 01.606-1.55h4.568c1.215 0 2.382.471 3.256 1.315l1.478 1.427a1.676 1.676 0 002.84-1.206v-2.293c0-1.196.457-2.346 1.277-3.216l.7-.743a4.687 4.687 0 013.41-1.472h.576a2.598 2.598 0 012.598 2.598v8.542a4.687 4.687 0 01-1.418 3.359l-1.776 1.729a.479.479 0 00.334.821 3.06 3.06 0 002.051-.79l.82-.74a4.687 4.687 0 001.544-3.478V37.59c0-1.327.562-2.592 1.547-3.48l.463-.418a1.13 1.13 0 011.887.84v.92c0 1.05.352 2.07 1 2.895l.167.212a.654.654 0 001.168-.404v-.853c0-.952-.36-1.87-1.01-2.567a1.466 1.466 0 01.087-2.082l.571-.52c.66-.6 1.52-.933 2.412-.933.886 0 1.734.36 2.35.996l.53.547a4.687 4.687 0 011.32 3.26v1.294a.692.692 0 001.167.502 3.747 3.747 0 001.168-2.718v-3.554c0-1.215.472-2.383 1.316-3.257l1.757-1.82a4.687 4.687 0 013.372-1.431h2.103a4.687 4.687 0 003.294-1.353l1.973-1.948a4.687 4.687 0 013.294-1.353h2.67c1.294 0 2.53.535 3.416 1.478l.606.645c.559.594 1.487.64 2.101.104l1.032-.901c.046-.04.09-.081.135-.123l3.203-3.024a4.687 4.687 0 013.218-1.28h.713a2.344 2.344 0 012.343 2.344 2.344 2.344 0 002.344 2.344h7.482c1.027 0 1.859.832 1.859 1.858 0 1.19-.476 2.33-1.32 3.166l-7.795 7.72a1.075 1.075 0 00.345 1.757 2.44 2.44 0 002.647-.515l5.044-4.965a4.687 4.687 0 013.288-1.347h4.763c1.317 0 2.572.554 3.46 1.525l.47.515a3.26 3.26 0 002.407 1.06c.794 0 1.437-.643 1.437-1.436v-.877a2.314 2.314 0 012.314-2.314h1.344c1.247 0 2.443.498 3.323 1.382l2.631 2.645c.658.661.666 1.727.02 2.399a1.677 1.677 0 00.044 2.37v.002l1.325 1.274a3.285 3.285 0 004.617-.06l.902-.915a4.687 4.687 0 013.337-1.396h5.162a2.3 2.3 0 002.3-2.3 2.3 2.3 0 012.3-2.3h3.004c1.245 0 2.439.495 3.318 1.376l1.255 1.258c.638.64 1.67.653 2.325.03l.1-.093a3.727 3.727 0 012.566-1.024c.821 0 1.487.666 1.487 1.487v1.613a3.1 3.1 0 003.1 3.1h8.56c1.2 0 2.353.46 3.224 1.285l1.494 1.415a1.469 1.469 0 002.084-.065 3.405 3.405 0 012.489-1.081h4.726c1.265 0 2.476.511 3.359 1.417l1.008 1.036a4.687 4.687 0 003.359 1.418h.222a2.2 2.2 0 002.201-2.201v-.11a2.31 2.31 0 012.31-2.31h4.442c1.3 0 2.542.54 3.428 1.491l.834.895a4.687 4.687 0 003.43 1.491h2.885c1.18 0 2.136.957 2.136 2.136v.377c0 1.134.415 2.228 1.168 3.075l.16.182a.576.576 0 001.007-.383c0-.837.68-1.516 1.517-1.516h1.26c1.167 0 2.292.435 3.155 1.22l.153.14a1.875 1.875 0 01.027 2.747l-2.494 2.363a4.687 4.687 0 01-3.224 1.284z" fill="#EEE" fill-rule="evenodd"/></svg>